<svg xmlns="http://www.w3.org/2000/svg" width="800" height="800" version="1.0" viewBox="0 0 600 600"><path fill="#34729d" d="M182.3 96.7L65 164.2v136.2l.1 136.1 114 66c62.8 36.3 115.7 66.8 117.8 67.8l3.6 1.9 117.8-67.7L536 436.8V300.6l-.1-136.1-116.4-67.3c-64.1-37.1-117.3-67.5-118.3-67.7-.9-.2-54.5 30-118.9 67.2zm283.1 80.5c-.4.7-4.8 7.8-9.8 15.8-8.8 14.3-13.5 23.5-17.1 33.8-1.1 2.9-2.3 5.1-2.8 4.9-.5-.1-1.9-3.4-3.1-7.2-6.3-19.6-15.1-28.6-31.3-32-7-1.5-25.5-2-33.7-.9l-4.6.7v198.4l12.1 10.1 12.1 10.2h-91.5l5.7-4.5c3.2-2.5 9.6-7.3 14.2-10.7l8.4-6.2V207h-11.9c-14.3 0-20.8 1.1-28.1 4.8-7 3.5-11.3 10.2-13.7 21.4-1.5 7-1.9 7.8-3.9 7.8-2.1 0-2.3-.4-1.8-3.3 2.5-14.1 5.3-20.5 11.7-26.4 6.8-6.2 14.6-8.4 32.7-8.9l14.5-.5.3-4.4.3-4.4-4.6-.7c-8.8-1.3-32.4.2-39.5 2.5-15.9 5-24 15.8-25.7 33.8-.3 3.6-1.1 6.3-1.7 6.3-.6 0-2.6-4.1-4.5-9.1-3.6-9.6-15.7-34.9-21-43.7-1.7-2.9-3.1-5.5-3.1-5.7 0-.3 54.5-.5 121.1-.5 96.5 0 120.9.3 120.3 1.2zm11.5 9.2c.9 1.1 0 3.1-4.4 9.6-5.6 8.2-15.7 27.6-21 40.3l-2.8 6.8-2.1-2-2-2.1 3.3-8.2c6.9-17 17.7-36.5 23.9-43.1 2.9-3.1 3.5-3.2 5.1-1.3zm-280.4 16.5c15.3 6.7 18.6 28.4 6.1 39.9-15.6 14.4-41 3.5-41-17.7.1-6.4 2-11.7 6.2-16.3 7.6-8.4 18-10.5 28.7-5.9zm204.5.1c10.6 1.1 16.6 3.5 20.5 8.2 1.4 1.7 2.4 3.2 2.2 3.4-.2.3-2.9-.7-6-2.1-7.8-3.6-17.6-5.5-29-5.5h-9.8l.3 92.3.3 92.3 15.8 16.9 15.8 17-50.8.3-50.7.2-2.5-2.5-2.6-2.5h97l-13.8-13.8-13.7-13.7V202h8.8c4.8 0 13 .5 18.2 1zm-191.4 64.1l-9.6 8.1v128.3l8.7 6 8.6 6-16.6.3c-9.2.1-24.2.1-33.3 0l-16.6-.3 10.1-6.9 10.1-6.9V275.4l-2.7-2.6c-1.6-1.3-5.7-4.6-9.3-7.3-3.6-2.7-6.9-5.2-7.4-5.7-.6-.4 14.4-.8 33.3-.8h34.3l-9.6 8.1zm15.4-1.2c0 .5-3.1 3.5-7 6.6l-7 5.7v125.4l12 11 12 10.9-37.6.3c-29.2.2-38-.1-39.2-1-1.2-1.1 5.2-1.4 33.6-1.8l35.2-.5-10-9-10-9V277.4l8.1-6.7c7.3-6 9.9-7.3 9.9-4.8z"/></svg>